<svg id="Layer_1" data-name="Layer 1" xmlns="http://www.w3.org/2000/svg" viewBox="0 0 282.76 50.15"><defs><style>.cls-1{fill:#1178b8;}.cls-2{fill:#00d2e6;}.cls-3{fill:none;stroke:#1178b8;stroke-miterlimit:10;stroke-width:3.34px;}.cls-4{fill:#fff;}</style></defs><title>logo-name</title><path class="cls-1" d="M456.34,241.26v3.43a8.32,8.32,0,0,1,7.28-3.94c5.84,0,10.5,4,10.5,13.57,0,8.45-4.82,13.27-10.81,13.27-3.28,0-5.53-1.13-7-3V277h-7.63V241.26ZM461,261.19c2.82,0,5.13-2.11,5.13-6.71,0-4.21-1.7-7.28-4.77-7.28-2.82,0-5,2.05-5,7.28C456.34,258.32,458.19,261.19,461,261.19Z" transform="translate(-370.96 -230.91)"/><path class="cls-1" d="M476.71,267.08V241.26h7.58v3.79c1.53-2.56,3.28-4.15,7-4.15a7.18,7.18,0,0,1,2.16.31v7.73a6.15,6.15,0,0,0-3-.72,5.44,5.44,0,0,0-4.09,1.8c-1.18,1.33-1.64,3-1.64,5.73v11.33Z" transform="translate(-370.96 -230.91)"/><path class="cls-1" d="M507,267.84c-8.35,0-13.17-4.86-13.17-13.62s5.28-13.78,13.58-13.78c8,0,12.91,5.07,12.91,14S514.77,267.84,507,267.84Zm.26-20.9c-2.92,0-5.38,2.31-5.38,7.18,0,5.22,2.3,7.22,5.27,7.22s5.28-1.74,5.28-7.17C512.47,249,510.32,246.94,507.3,246.94Z" transform="translate(-370.96 -230.91)"/><path class="cls-1" d="M537.07,267.08c-1.74-3-3.69-6.36-4.66-8.15-.82,1.59-2.36,4.41-4.41,8.15h-8.65l7.88-13.37-7.37-12.45h9c2.2,4.2,3.13,6,3.84,7.53.72-1.49,1.54-3,3.9-7.53h8.6L538,253.6l7.94,13.48Z" transform="translate(-370.96 -230.91)"/><path class="cls-1" d="M545.56,241.26h8.81c2,5.48,3.84,11,5.58,16.49,1.54-5.53,2.87-10.4,4.72-16.49h8.24l-7.78,23.15c-3.43,10.3-6,13.32-13.06,13.32a14.19,14.19,0,0,1-3.33-.41v-6.66a7.35,7.35,0,0,0,2.3.41c2.77,0,3.74-1,4.71-4Z" transform="translate(-370.96 -230.91)"/><path class="cls-2" d="M574.5,267.08v-25h3v4.25c1.64-3.23,4-4.56,7.07-4.56a7.84,7.84,0,0,1,2.46.36v3.38a5.11,5.11,0,0,0-2.72-.67,5.56,5.56,0,0,0-4.86,2.46c-1.44,1.69-1.85,3.9-1.85,7.28v12.5Z" transform="translate(-370.96 -230.91)"/><path class="cls-2" d="M603.51,250.07c0-2.36-.41-3.74-1.43-4.66a6.1,6.1,0,0,0-4.2-1.33c-4,0-6.15,1.94-6.51,5.78l-3-.41c.61-5.43,4.4-7.94,9.63-7.94,3.28,0,5.68.72,7.12,2.87,1,1.49,1.33,3.38,1.33,6.56v10.3c0,2.15.21,3.48,2.41,3.48a7,7,0,0,0,1.07-.1v2.46c-.56.05-1.28.1-1.79.1-3,0-4.3-1.18-4.51-3.95-1.89,3-4.86,4.2-8.65,4.2-4.51,0-7.59-2.81-7.59-6.86,0-3.18,1.49-5.33,4.72-6.66,2.61-1.08,6.35-1.64,11.42-2Zm-10.09,6c-1.9.87-3,2.05-3,4.31,0,3,2.1,4.56,5.22,4.56a7.52,7.52,0,0,0,6-2.57c1.28-1.58,1.84-3.74,1.84-6.5v-1.69C599.26,254.53,595.72,255,593.42,256.11Z" transform="translate(-370.96 -230.91)"/><path class="cls-2" d="M627.43,249.61c-.77-4-3.13-5.43-6.1-5.43-5.07,0-8.2,3.69-8.2,10.35,0,6.45,3.18,10.5,8.4,10.5,3.59,0,5.54-2,6.2-5.33l2.92.92c-1.18,3.84-4,7.07-9.48,7.07-6.81,0-11.16-5-11.16-13.27,0-8,4.4-12.91,11.42-12.91,4.66,0,7.89,2.41,9,7.12Z" transform="translate(-370.96 -230.91)"/><path class="cls-2" d="M650,267.08l-8.6-13.17-5,5.28v7.89h-3V230.91h3v24.64l12.24-13.47h3.79l-8.91,9.68,10.19,15.32Z" transform="translate(-370.96 -230.91)"/><line class="cls-3" x1="59.08" y1="3.24" x2="64.54" y2="3.24"/><path class="cls-3" d="M430,234.15" transform="translate(-370.96 -230.91)"/><line class="cls-3" x1="38.26" y1="3.24" x2="54.75" y2="3.24"/><line class="cls-3" x1="59.08" y1="32.85" x2="64.54" y2="32.85"/><path class="cls-3" d="M430,263.76" transform="translate(-370.96 -230.91)"/><line class="cls-3" x1="38.26" y1="32.85" x2="54.75" y2="32.85"/><line class="cls-3" x1="29.91" y1="18.88" x2="56.19" y2="18.88"/><line class="cls-3" x1="29.91" y1="48.33" x2="56.19" y2="48.33"/><rect class="cls-2" x="3.34" y="32.85" width="45.33" height="13.96" rx="6.98" ry="6.98"/><rect class="cls-2" x="3.34" y="18.88" width="45.33" height="13.96" rx="6.98" ry="6.98"/><rect class="cls-2" x="3.34" y="4.92" width="45.33" height="13.96" rx="6.98" ry="6.98"/><path class="cls-1" d="M412.65,235.83a7,7,0,1,1,0,14,7,7,0,0,1,0,14,7,7,0,0,1,0,14H381.28a7,7,0,1,1,0-14,7,7,0,0,1,0-14,7,7,0,1,1,0-14h31.37m0-3.34H381.28a10.31,10.31,0,0,0-7.59,17.3,10.3,10.3,0,0,0,0,14,10.31,10.31,0,0,0,7.59,17.3h31.37a10.31,10.31,0,0,0,7.59-17.3,10.3,10.3,0,0,0,0-14,10.31,10.31,0,0,0-7.59-17.3Z" transform="translate(-370.96 -230.91)"/><path class="cls-3" d="M397.34,269.7a11.88,11.88,0,0,0,11.88-11.88" transform="translate(-370.96 -230.91)"/><circle class="cls-4" cx="26" cy="11.42" r="2.04"/><circle class="cls-4" cx="31.89" cy="11.42" r="2.04"/><circle class="cls-4" cx="38.26" cy="11.42" r="2.04"/><ellipse class="cls-1" cx="20.39" cy="22.26" rx="2.88" ry="4.01"/><ellipse class="cls-1" cx="32.73" cy="22.26" rx="2.88" ry="4.01"/></svg>